<?xml version="1.0" encoding="utf-8"?>
<!-- Generator: Adobe Illustrator 16.0.3, SVG Export Plug-In . SVG Version: 6.00 Build 0)  -->
<!DOCTYPE svg PUBLIC "-//W3C//DTD SVG 1.1//EN" "http://www.w3.org/Graphics/SVG/1.1/DTD/svg11.dtd">
<svg version="1.1" id="Layer_1" xmlns="http://www.w3.org/2000/svg" xmlns:xlink="http://www.w3.org/1999/xlink" x="0px" y="0px"
	 width="200px" height="200px" viewBox="0 0 200 200" enable-background="new 0 0 200 200" xml:space="preserve">
<g>
	<circle fill="#32BEA6" cx="100.229" cy="100.156" r="99.435"/>
</g>
<g>
	<g>
		<path fill-rule="evenodd" clip-rule="evenodd" fill="none" stroke="#3E3D3E" stroke-width="5" stroke-miterlimit="10" d="
			M81.98,46.994h36.04c2.488,0,4.505,2.016,4.505,4.504v39.417c0,2.488-2.017,4.505-4.505,4.505H81.98
			c-2.488,0-4.505-2.018-4.505-4.505V51.498C77.476,49.01,79.492,46.994,81.98,46.994z"/>
	</g>
	<g>
		<path fill-rule="evenodd" clip-rule="evenodd" fill="#FFFFFF" d="M71.281,64.355h13.516c1.243,0,2.254,1.009,2.254,2.252v9.011
			c0,1.242-1.011,2.25-2.254,2.25H71.281c-1.245,0-2.252-1.008-2.252-2.25v-9.011C69.029,65.364,70.036,64.355,71.281,64.355z"/>
		<path fill-rule="evenodd" clip-rule="evenodd" fill="#FFFFFF" d="M115.205,64.355h13.516c1.243,0,2.251,1.009,2.251,2.252v9.011
			c0,1.242-1.008,2.25-2.251,2.25h-13.516c-1.245,0-2.253-1.008-2.253-2.25v-9.011C112.952,65.364,113.96,64.355,115.205,64.355z"/>
	</g>
	<g>
		<path fill-rule="evenodd" clip-rule="evenodd" fill="#BF0202" d="M38.621,98.05h122.76c3.111,0,5.631,2.52,5.631,5.631v43.922
			c0,3.111-2.52,5.632-5.631,5.632H38.621c-3.112,0-5.632-2.521-5.632-5.632v-43.922C32.989,100.569,35.509,98.05,38.621,98.05z"/>
	</g>
	<g>
		<path fill-rule="evenodd" clip-rule="evenodd" fill="#FA5655" d="M28.484,68.86h143.032v32.662H28.484V68.86z"/>
		<path fill-rule="evenodd" clip-rule="evenodd" fill="#FA5655" d="M31.862,88.005H168.14c1.864,0,3.377,1.515,3.377,3.379v15.768
			c0,1.867-1.513,3.38-3.377,3.38H31.862c-1.864,0-3.378-1.513-3.378-3.38V91.384C28.484,89.52,29.998,88.005,31.862,88.005z"/>
	</g>
	<g>
		<g>
			<path fill-rule="evenodd" clip-rule="evenodd" fill="#E8E8E8" d="M100.001,100.302c4.664,0,8.447,3.78,8.447,8.447v7.885
				c0,4.664-3.783,8.445-8.447,8.445c-4.665,0-8.448-3.781-8.448-8.445v-7.885C91.553,104.082,95.336,100.302,100.001,100.302z"/>
		</g>
		<g>
			<path fill-rule="evenodd" clip-rule="evenodd" fill="#FFFFFF" d="M91.553,97.016h16.896c1.244,0,2.253,1.009,2.253,2.253v9.011
				c0,1.245-1.009,2.253-2.253,2.253H91.553c-1.243,0-2.252-1.008-2.252-2.253v-9.011C89.301,98.024,90.31,97.016,91.553,97.016z"/>
		</g>
		<g>
			<path fill-rule="evenodd" clip-rule="evenodd" fill="#3E3D3E" d="M100.001,112.689c1.556,0,2.815,1.263,2.815,2.816v2.254
				c0,1.554-1.26,2.814-2.815,2.814s-2.816-1.261-2.816-2.814v-2.254C97.185,113.952,98.445,112.689,100.001,112.689z"/>
		</g>
	</g>
</g>
</svg>
